<svg width="590" height="554" viewBox="0 0 590 554" fill="none" xmlns="http://www.w3.org/2000/svg">
<g clip-path="url(#clip0)">
<path opacity="0.5" d="M311.41 506.843C311.41 377.995 403.327 377.995 403.327 377.995C435.15 215.419 590 271.26 590 271.26V554H224V553.531C224 553.531 234.97 506.843 311.41 506.843Z" fill="white"/>
<path opacity="0.5" d="M590 468C590 468 518.756 442.835 483.658 515.94C483.658 515.94 420.669 477.72 398.967 554.17L590 554V468Z" fill="white"/>
<path d="M407.445 147.875L397.016 142.874C396.481 142.615 395.879 142.529 395.294 142.628C394.708 142.727 394.168 143.006 393.748 143.426C393.328 143.846 393.05 144.387 392.951 144.973C392.852 145.558 392.937 146.16 393.196 146.695L398.196 157.128C398.383 157.517 398.481 157.942 398.481 158.374C398.481 158.805 398.383 159.231 398.196 159.619L393.196 170.052C392.934 170.587 392.845 171.191 392.943 171.779C393.04 172.367 393.319 172.909 393.739 173.331C394.16 173.753 394.702 174.033 395.289 174.132C395.877 174.231 396.48 174.144 397.016 173.883L407.445 168.882C407.833 168.699 408.256 168.604 408.685 168.604C409.113 168.604 409.537 168.699 409.925 168.882L420.354 173.883C420.888 174.142 421.49 174.228 422.076 174.129C422.661 174.03 423.201 173.751 423.621 173.331C424.041 172.911 424.32 172.37 424.419 171.785C424.518 171.199 424.432 170.597 424.173 170.062L419.174 159.629C418.986 159.241 418.889 158.815 418.889 158.384C418.889 157.952 418.986 157.527 419.174 157.138L424.173 146.705C424.432 146.17 424.518 145.568 424.419 144.983C424.32 144.397 424.041 143.856 423.621 143.436C423.201 143.016 422.661 142.737 422.076 142.638C421.49 142.539 420.888 142.625 420.354 142.884L409.925 147.885C409.536 148.067 409.112 148.16 408.684 148.158C408.255 148.156 407.832 148.06 407.445 147.875Z" fill="white"/>
<path d="M512.067 248.266L506.397 232.071C506.106 231.243 505.565 230.525 504.849 230.017C504.132 229.509 503.276 229.237 502.398 229.237C501.52 229.237 500.663 229.509 499.947 230.017C499.23 230.525 498.689 231.243 498.398 232.071L492.719 248.286C492.508 248.887 492.165 249.433 491.715 249.883C491.265 250.333 490.719 250.676 490.119 250.887L473.96 256.539C473.136 256.835 472.424 257.378 471.92 258.094C471.417 258.81 471.146 259.664 471.146 260.54C471.146 261.416 471.417 262.27 471.92 262.986C472.424 263.702 473.136 264.245 473.96 264.541L490.169 270.213C490.771 270.421 491.318 270.763 491.768 271.214C492.219 271.664 492.561 272.211 492.769 272.814L498.448 289.029C498.739 289.857 499.28 290.575 499.997 291.083C500.713 291.591 501.57 291.863 502.448 291.863C503.326 291.863 504.182 291.591 504.899 291.083C505.615 290.575 506.156 289.857 506.447 289.029L512.117 272.814C512.328 272.211 512.672 271.665 513.124 271.214C513.576 270.764 514.124 270.421 514.727 270.213L530.925 264.541C531.754 264.25 532.471 263.708 532.979 262.992C533.486 262.275 533.759 261.418 533.759 260.54C533.759 259.662 533.486 258.805 532.979 258.088C532.471 257.371 531.754 256.83 530.925 256.539L514.727 250.867C514.116 250.663 513.559 250.323 513.098 249.872C512.637 249.422 512.285 248.873 512.067 248.266Z" fill="white"/>
<path d="M468.371 369.163L470.321 367.213C470.839 366.696 471.54 366.406 472.271 366.406C473.002 366.406 473.704 366.696 474.221 367.213C474.738 367.73 475.028 368.432 475.028 369.163C475.028 369.895 474.738 370.596 474.221 371.114L472.281 373.055C471.764 373.571 471.062 373.862 470.331 373.862C469.6 373.862 468.899 373.571 468.381 373.055C468.125 372.8 467.922 372.497 467.783 372.164C467.643 371.83 467.571 371.472 467.57 371.111C467.569 370.75 467.64 370.392 467.777 370.058C467.915 369.723 468.116 369.419 468.371 369.163Z" fill="white"/>
<path d="M452.772 384.758L454.712 382.818C455.229 382.301 455.931 382.01 456.662 382.01C457.393 382.01 458.094 382.301 458.612 382.818C459.128 383.335 459.419 384.037 459.419 384.768C459.419 385.5 459.128 386.201 458.612 386.719L456.662 388.719C456.406 388.976 456.102 389.18 455.768 389.32C455.433 389.459 455.074 389.53 454.712 389.53C454.349 389.53 453.991 389.459 453.656 389.32C453.321 389.18 453.017 388.976 452.762 388.719C452.498 388.461 452.288 388.153 452.145 387.812C452.002 387.472 451.929 387.106 451.93 386.737C451.931 386.367 452.006 386.002 452.15 385.662C452.295 385.322 452.506 385.015 452.772 384.758Z" fill="white"/>
<path d="M468.37 382.818C468.889 382.303 469.59 382.015 470.32 382.015C471.051 382.015 471.752 382.303 472.27 382.818L474.21 384.768C474.727 385.286 475.017 385.987 475.017 386.719C475.017 387.45 474.727 388.152 474.21 388.669C473.692 389.184 472.991 389.472 472.26 389.472C471.53 389.472 470.829 389.184 470.31 388.669L468.36 386.719C467.845 386.2 467.557 385.497 467.559 384.766C467.56 384.035 467.852 383.334 468.37 382.818Z" fill="white"/>
<path d="M452.772 367.213C453.291 366.698 453.991 366.41 454.722 366.41C455.452 366.41 456.153 366.698 456.672 367.213L458.612 369.163C459.128 369.681 459.419 370.382 459.419 371.114C459.419 371.845 459.128 372.547 458.612 373.064C458.093 373.579 457.392 373.867 456.662 373.867C455.931 373.867 455.231 373.579 454.712 373.064L452.772 371.114C452.515 370.858 452.311 370.554 452.172 370.219C452.033 369.885 451.961 369.526 451.961 369.163C451.961 368.801 452.033 368.442 452.172 368.107C452.311 367.772 452.515 367.468 452.772 367.213Z" fill="white"/>
<path d="M468.371 369.163L470.321 367.213C470.839 366.696 471.54 366.406 472.271 366.406C473.002 366.406 473.704 366.696 474.221 367.213C474.738 367.73 475.028 368.432 475.028 369.163C475.028 369.895 474.738 370.596 474.221 371.114L472.281 373.055C471.764 373.571 471.062 373.862 470.331 373.862C469.6 373.862 468.899 373.571 468.381 373.055C468.125 372.8 467.922 372.497 467.783 372.164C467.643 371.83 467.571 371.472 467.57 371.111C467.569 370.75 467.64 370.392 467.777 370.058C467.915 369.723 468.116 369.419 468.371 369.163Z" fill="white"/>
<path d="M452.772 384.758L454.712 382.818C455.229 382.301 455.931 382.01 456.662 382.01C457.393 382.01 458.094 382.301 458.612 382.818C459.128 383.335 459.419 384.037 459.419 384.768C459.419 385.5 459.128 386.201 458.612 386.719L456.662 388.719C456.406 388.976 456.102 389.18 455.768 389.32C455.433 389.459 455.074 389.53 454.712 389.53C454.349 389.53 453.991 389.459 453.656 389.32C453.321 389.18 453.017 388.976 452.762 388.719C452.498 388.461 452.288 388.153 452.145 387.812C452.002 387.472 451.929 387.106 451.93 386.737C451.931 386.367 452.006 386.002 452.15 385.662C452.295 385.322 452.506 385.015 452.772 384.758Z" fill="white"/>
<path d="M468.37 382.818C468.889 382.303 469.59 382.015 470.32 382.015C471.051 382.015 471.752 382.303 472.27 382.818L474.21 384.768C474.727 385.286 475.017 385.987 475.017 386.719C475.017 387.45 474.727 388.152 474.21 388.669C473.692 389.184 472.991 389.472 472.26 389.472C471.53 389.472 470.829 389.184 470.31 388.669L468.36 386.719C467.845 386.2 467.557 385.497 467.559 384.766C467.56 384.035 467.852 383.334 468.37 382.818Z" fill="white"/>
<path d="M452.772 367.213C453.291 366.698 453.991 366.41 454.722 366.41C455.452 366.41 456.153 366.698 456.672 367.213L458.612 369.163C459.128 369.681 459.419 370.382 459.419 371.114C459.419 371.845 459.128 372.547 458.612 373.064C458.093 373.579 457.392 373.867 456.662 373.867C455.931 373.867 455.231 373.579 454.712 373.064L452.772 371.114C452.515 370.858 452.311 370.554 452.172 370.219C452.033 369.885 451.961 369.526 451.961 369.163C451.961 368.801 452.033 368.442 452.172 368.107C452.311 367.772 452.515 367.468 452.772 367.213Z" fill="white"/>
</g>
<defs>
<clipPath id="clip0">
<rect width="590" height="554" fill="white"/>
</clipPath>
</defs>
</svg>
