<svg width="425" height="525" viewBox="0 0 425 525" fill="none" xmlns="http://www.w3.org/2000/svg">
<g clip-path="url(#clip0)">
<path opacity="0.5" d="M425 525C404.045 475.025 373.929 473.458 342.101 469.428C342.101 324.25 242.108 335.901 242.108 335.901C204.508 144.317 0 111 0 111V525H425Z" fill="white"/>
<path opacity="0.5" d="M0 347.04C0 347.04 112.442 341.881 135.359 448.205C135.359 448.205 227.603 443.776 246 525L0 525V347.04Z" fill="white"/>
<path d="M131.042 326.191L115.069 331.769C114.253 332.058 113.547 332.593 113.048 333.299C112.549 334.006 112.281 334.849 112.281 335.713C112.281 336.578 112.549 337.421 113.048 338.127C113.547 338.834 114.253 339.368 115.069 339.658L131.042 345.236C131.635 345.443 132.174 345.783 132.618 346.228C133.061 346.673 133.398 347.213 133.603 347.807L139.199 363.762C139.486 364.578 140.02 365.284 140.726 365.784C141.432 366.284 142.277 366.553 143.142 366.553C144.008 366.553 144.852 366.284 145.559 365.784C146.265 365.284 146.798 364.578 147.085 363.762L152.681 347.807C152.886 347.213 153.223 346.673 153.667 346.228C154.111 345.783 154.649 345.443 155.243 345.236L171.18 339.623C171.996 339.333 172.702 338.798 173.201 338.092C173.7 337.386 173.968 336.542 173.968 335.678C173.968 334.813 173.7 333.97 173.201 333.264C172.702 332.558 171.996 332.023 171.18 331.733L155.208 326.156C154.616 325.948 154.078 325.611 153.635 325.168C153.191 324.725 152.853 324.188 152.646 323.597L147.05 307.63C146.763 306.814 146.23 306.107 145.523 305.607C144.817 305.107 143.973 304.838 143.107 304.838C142.241 304.838 141.397 305.107 140.69 305.607C139.984 306.107 139.451 306.814 139.164 307.63L133.568 323.597C133.369 324.191 133.038 324.732 132.601 325.181C132.164 325.631 131.631 325.976 131.042 326.191Z" fill="white"/>
<path d="M209.159 239.965L199.797 235.519C199.313 235.297 198.773 235.229 198.248 235.323C197.724 235.417 197.241 235.669 196.865 236.045C196.488 236.421 196.236 236.904 196.142 237.427C196.048 237.951 196.116 238.491 196.338 238.974L200.789 248.314C200.958 248.661 201.046 249.042 201.046 249.428C201.046 249.814 200.958 250.195 200.789 250.543L196.196 259.977C195.954 260.453 195.869 260.994 195.953 261.522C196.038 262.05 196.287 262.538 196.665 262.916C197.044 263.294 197.532 263.543 198.061 263.627C198.589 263.711 199.131 263.626 199.608 263.385L209.053 258.797C209.402 258.634 209.783 258.549 210.168 258.549C210.554 258.549 210.935 258.634 211.284 258.797L220.634 263.243C221.118 263.472 221.661 263.546 222.189 263.455C222.717 263.363 223.203 263.111 223.582 262.733C223.961 262.354 224.213 261.868 224.305 261.341C224.396 260.814 224.322 260.271 224.093 259.788L219.583 250.354C219.42 250.005 219.335 249.625 219.335 249.239C219.335 248.854 219.42 248.474 219.583 248.125L224.164 238.691C224.403 238.216 224.487 237.677 224.402 237.151C224.318 236.625 224.07 236.14 223.694 235.763C223.318 235.385 222.832 235.136 222.306 235.05C221.78 234.964 221.241 235.046 220.764 235.283L211.319 239.87C210.988 240.042 210.623 240.14 210.25 240.156C209.876 240.173 209.504 240.107 209.159 239.965Z" fill="white"/>
</g>
<defs>
<clipPath id="clip0">
<rect width="425" height="525" fill="white"/>
</clipPath>
</defs>
</svg>
